<mxfile host="www.draw.io" modified="2019-10-31T14:08:39.353Z" agent="Mozilla/5.0 (X11; Linux x86_64) AppleWebKit/537.36 (KHTML, like Gecko) snap Chromium/78.0.3904.70 Chrome/78.0.3904.70 Safari/537.36" etag="vHdGe8AtcUeiTGuUXxv2" version="12.1.9" type="github" pages="1">
  <diagram id="Z8bdbSzSr9ScGWn6kMnD" name="Page-1">
    <mxGraphModel dx="1055" dy="686" grid="1" gridSize="10" guides="1" tooltips="1" connect="1" arrows="1" fold="1" page="1" pageScale="1" pageWidth="850" pageHeight="1100" math="0" shadow="0">
      <root>
        <mxCell id="0"/>
        <mxCell id="1" parent="0"/>
        <mxCell id="dtRBwtenh07tfFOt_kRE-1" value="Root(1:)" style="rounded=1;whiteSpace=wrap;html=1;fillColor=#1ba1e2;strokeColor=none;fontColor=#ffffff;" parent="1" vertex="1">
          <mxGeometry x="310" y="170" width="80" height="40" as="geometry"/>
        </mxCell>
        <mxCell id="dtRBwtenh07tfFOt_kRE-2" value="1:1" style="rounded=1;whiteSpace=wrap;html=1;fillColor=#f0a30a;strokeColor=none;fontColor=#ffffff;" parent="1" vertex="1">
          <mxGeometry x="150" y="250" width="80" height="40" as="geometry"/>
        </mxCell>
        <mxCell id="dtRBwtenh07tfFOt_kRE-3" value="1:2" style="rounded=1;whiteSpace=wrap;html=1;fillColor=#f0a30a;strokeColor=none;fontColor=#ffffff;" parent="1" vertex="1">
          <mxGeometry x="310" y="250" width="80" height="40" as="geometry"/>
        </mxCell>
        <mxCell id="dtRBwtenh07tfFOt_kRE-4" value="1:3" style="rounded=1;whiteSpace=wrap;html=1;fillColor=#f0a30a;strokeColor=none;fontColor=#ffffff;" parent="1" vertex="1">
          <mxGeometry x="470" y="250" width="80" height="40" as="geometry"/>
        </mxCell>
        <mxCell id="dtRBwtenh07tfFOt_kRE-5" value="10:&lt;br&gt;(sfq)" style="rounded=1;whiteSpace=wrap;html=1;fillColor=#647687;strokeColor=#314354;fontColor=#ffffff;" parent="1" vertex="1">
          <mxGeometry x="150" y="330" width="80" height="40" as="geometry"/>
        </mxCell>
        <mxCell id="dtRBwtenh07tfFOt_kRE-6" value="20:&lt;br&gt;(sfq)" style="rounded=1;whiteSpace=wrap;html=1;fillColor=#647687;strokeColor=none;fontColor=#ffffff;" parent="1" vertex="1">
          <mxGeometry x="310" y="330" width="80" height="40" as="geometry"/>
        </mxCell>
        <mxCell id="dtRBwtenh07tfFOt_kRE-7" value="30:&lt;br&gt;(sfq)" style="rounded=1;whiteSpace=wrap;html=1;fillColor=#647687;strokeColor=none;fontColor=#ffffff;" parent="1" vertex="1">
          <mxGeometry x="470" y="330" width="80" height="40" as="geometry"/>
        </mxCell>
        <mxCell id="dtRBwtenh07tfFOt_kRE-8" value="0" style="ellipse;whiteSpace=wrap;html=1;aspect=fixed;fillColor=#647687;strokeColor=none;fontColor=#ffffff;" parent="1" vertex="1">
          <mxGeometry x="170" y="410" width="40" height="40" as="geometry"/>
        </mxCell>
        <mxCell id="dtRBwtenh07tfFOt_kRE-10" value="1" style="ellipse;whiteSpace=wrap;html=1;aspect=fixed;fillColor=#647687;strokeColor=none;fontColor=#ffffff;" parent="1" vertex="1">
          <mxGeometry x="330" y="410" width="40" height="40" as="geometry"/>
        </mxCell>
        <mxCell id="dtRBwtenh07tfFOt_kRE-11" value="2" style="ellipse;whiteSpace=wrap;html=1;aspect=fixed;fillColor=#647687;strokeColor=none;fontColor=#ffffff;" parent="1" vertex="1">
          <mxGeometry x="490" y="410" width="40" height="40" as="geometry"/>
        </mxCell>
        <mxCell id="dtRBwtenh07tfFOt_kRE-12" value="&lt;font style=&quot;font-size: 14px&quot;&gt;&lt;b&gt;Traffic Bands&lt;/b&gt;&lt;/font&gt;" style="text;html=1;strokeColor=none;fillColor=none;align=center;verticalAlign=middle;whiteSpace=wrap;rounded=0;" parent="1" vertex="1">
          <mxGeometry x="630" y="420" width="140" height="20" as="geometry"/>
        </mxCell>
        <mxCell id="dtRBwtenh07tfFOt_kRE-14" value="" style="endArrow=classic;html=1;exitX=0;exitY=0.5;exitDx=0;exitDy=0;" parent="1" source="dtRBwtenh07tfFOt_kRE-12" edge="1">
          <mxGeometry width="50" height="50" relative="1" as="geometry">
            <mxPoint x="150" y="520" as="sourcePoint"/>
            <mxPoint x="550" y="430" as="targetPoint"/>
          </mxGeometry>
        </mxCell>
        <mxCell id="dtRBwtenh07tfFOt_kRE-15" value="" style="endArrow=none;html=1;entryX=0.5;entryY=1;entryDx=0;entryDy=0;exitX=0.5;exitY=0;exitDx=0;exitDy=0;fillColor=#f0a30a;strokeColor=#BD7000;" parent="1" source="dtRBwtenh07tfFOt_kRE-2" target="dtRBwtenh07tfFOt_kRE-1" edge="1">
          <mxGeometry width="50" height="50" relative="1" as="geometry">
            <mxPoint x="150" y="520" as="sourcePoint"/>
            <mxPoint x="200" y="470" as="targetPoint"/>
          </mxGeometry>
        </mxCell>
        <mxCell id="dtRBwtenh07tfFOt_kRE-16" value="" style="endArrow=none;html=1;entryX=0.5;entryY=1;entryDx=0;entryDy=0;fillColor=#f0a30a;strokeColor=#BD7000;" parent="1" source="dtRBwtenh07tfFOt_kRE-3" target="dtRBwtenh07tfFOt_kRE-1" edge="1">
          <mxGeometry width="50" height="50" relative="1" as="geometry">
            <mxPoint x="150" y="520" as="sourcePoint"/>
            <mxPoint x="200" y="470" as="targetPoint"/>
          </mxGeometry>
        </mxCell>
        <mxCell id="dtRBwtenh07tfFOt_kRE-17" value="" style="endArrow=none;html=1;entryX=0.5;entryY=1;entryDx=0;entryDy=0;exitX=0.5;exitY=0;exitDx=0;exitDy=0;fillColor=#f0a30a;strokeColor=#BD7000;" parent="1" source="dtRBwtenh07tfFOt_kRE-4" target="dtRBwtenh07tfFOt_kRE-1" edge="1">
          <mxGeometry width="50" height="50" relative="1" as="geometry">
            <mxPoint x="150" y="520" as="sourcePoint"/>
            <mxPoint x="200" y="470" as="targetPoint"/>
          </mxGeometry>
        </mxCell>
        <mxCell id="NqkpUeKmZhA3ntc3kvnr-1" value="" style="endArrow=none;html=1;entryX=0.5;entryY=1;entryDx=0;entryDy=0;fillColor=#647687;strokeColor=#314354;" edge="1" parent="1" source="dtRBwtenh07tfFOt_kRE-5" target="dtRBwtenh07tfFOt_kRE-2">
          <mxGeometry width="50" height="50" relative="1" as="geometry">
            <mxPoint x="150" y="520" as="sourcePoint"/>
            <mxPoint x="200" y="470" as="targetPoint"/>
          </mxGeometry>
        </mxCell>
        <mxCell id="NqkpUeKmZhA3ntc3kvnr-2" value="" style="endArrow=none;html=1;entryX=0.5;entryY=1;entryDx=0;entryDy=0;fillColor=#647687;strokeColor=#314354;" edge="1" parent="1">
          <mxGeometry width="50" height="50" relative="1" as="geometry">
            <mxPoint x="349.5" y="330" as="sourcePoint"/>
            <mxPoint x="349.5" y="290" as="targetPoint"/>
          </mxGeometry>
        </mxCell>
        <mxCell id="NqkpUeKmZhA3ntc3kvnr-4" value="" style="endArrow=none;html=1;entryX=0.5;entryY=1;entryDx=0;entryDy=0;fillColor=#647687;strokeColor=#314354;" edge="1" parent="1">
          <mxGeometry width="50" height="50" relative="1" as="geometry">
            <mxPoint x="509" y="330" as="sourcePoint"/>
            <mxPoint x="509" y="290" as="targetPoint"/>
          </mxGeometry>
        </mxCell>
        <mxCell id="NqkpUeKmZhA3ntc3kvnr-5" value="" style="endArrow=none;html=1;entryX=0.5;entryY=1;entryDx=0;entryDy=0;fillColor=#647687;strokeColor=#314354;" edge="1" parent="1">
          <mxGeometry width="50" height="50" relative="1" as="geometry">
            <mxPoint x="509" y="410" as="sourcePoint"/>
            <mxPoint x="509" y="370" as="targetPoint"/>
          </mxGeometry>
        </mxCell>
        <mxCell id="NqkpUeKmZhA3ntc3kvnr-6" value="" style="endArrow=none;html=1;entryX=0.5;entryY=1;entryDx=0;entryDy=0;fillColor=#647687;strokeColor=#314354;" edge="1" parent="1">
          <mxGeometry width="50" height="50" relative="1" as="geometry">
            <mxPoint x="350" y="410" as="sourcePoint"/>
            <mxPoint x="350" y="370" as="targetPoint"/>
          </mxGeometry>
        </mxCell>
        <mxCell id="NqkpUeKmZhA3ntc3kvnr-7" value="" style="endArrow=none;html=1;entryX=0.5;entryY=1;entryDx=0;entryDy=0;fillColor=#647687;strokeColor=#314354;" edge="1" parent="1">
          <mxGeometry width="50" height="50" relative="1" as="geometry">
            <mxPoint x="190" y="410" as="sourcePoint"/>
            <mxPoint x="190" y="370" as="targetPoint"/>
          </mxGeometry>
        </mxCell>
        <mxCell id="NqkpUeKmZhA3ntc3kvnr-8" value="" style="endArrow=classic;html=1;entryX=0.5;entryY=0;entryDx=0;entryDy=0;strokeWidth=3;" edge="1" parent="1" target="dtRBwtenh07tfFOt_kRE-1">
          <mxGeometry width="50" height="50" relative="1" as="geometry">
            <mxPoint x="350" y="110" as="sourcePoint"/>
            <mxPoint x="200" y="470" as="targetPoint"/>
          </mxGeometry>
        </mxCell>
      </root>
    </mxGraphModel>
  </diagram>
</mxfile>
